<svg width="1600" height="520" viewBox="0 0 1600 520" fill="none" xmlns="http://www.w3.org/2000/svg" role="img" aria-labelledby="title desc">
  <title id="title">Nexa organization banner</title>
  <desc id="desc">Dark navy and blue banner with cold-chain logistics, warehouse, catalog, sales, and invoicing signals.</desc>
  <defs>
    <linearGradient id="bg" x1="0" y1="0" x2="1600" y2="520" gradientUnits="userSpaceOnUse">
      <stop stop-color="#06111F"/>
      <stop offset="0.42" stop-color="#082142"/>
      <stop offset="1" stop-color="#0F3B70"/>
    </linearGradient>
    <linearGradient id="blueLine" x1="210" y1="312" x2="1320" y2="312" gradientUnits="userSpaceOnUse">
      <stop stop-color="#67E8F9"/>
      <stop offset="0.52" stop-color="#0EA5E9"/>
      <stop offset="1" stop-color="#2563EB"/>
    </linearGradient>
    <linearGradient id="card" x1="0" y1="0" x2="1" y2="1">
      <stop stop-color="#102A4C"/>
      <stop offset="1" stop-color="#081827"/>
    </linearGradient>
    <filter id="shadow" x="-20%" y="-20%" width="140%" height="140%" color-interpolation-filters="sRGB">
      <feDropShadow dx="0" dy="18" stdDeviation="22" flood-color="#020617" flood-opacity="0.32"/>
    </filter>
  </defs>
  <rect width="1600" height="520" fill="url(#bg)"/>
  <path d="M0 440C230 388 362 430 568 384C780 337 931 204 1161 222C1332 235 1453 310 1600 270V520H0V440Z" fill="#0EA5E9" fill-opacity="0.10"/>
  <path d="M0 79C222 128 396 88 580 90C816 93 958 199 1175 164C1339 137 1469 65 1600 92" stroke="#38BDF8" stroke-opacity="0.18" stroke-width="2"/>
  <g opacity="0.25">
    <path d="M118 96H1492" stroke="#38BDF8" stroke-width="1"/>
    <path d="M118 184H1492" stroke="#38BDF8" stroke-width="1"/>
    <path d="M118 272H1492" stroke="#38BDF8" stroke-width="1"/>
    <path d="M118 360H1492" stroke="#38BDF8" stroke-width="1"/>
    <path d="M230 48V470" stroke="#38BDF8" stroke-width="1"/>
    <path d="M478 48V470" stroke="#38BDF8" stroke-width="1"/>
    <path d="M726 48V470" stroke="#38BDF8" stroke-width="1"/>
    <path d="M974 48V470" stroke="#38BDF8" stroke-width="1"/>
    <path d="M1222 48V470" stroke="#38BDF8" stroke-width="1"/>
    <path d="M1470 48V470" stroke="#38BDF8" stroke-width="1"/>
  </g>
  <g filter="url(#shadow)">
    <rect x="96" y="92" width="256" height="256" rx="54" fill="url(#card)" stroke="#1B75BC" stroke-width="2"/>
    <path d="M156 270V170h28l68 62v-62h28v100h-25l-71-66v66h-28Z" fill="#38BDF8"/>
    <path d="M156 300h128" stroke="#67E8F9" stroke-width="8" stroke-linecap="round"/>
    <circle cx="156" cy="300" r="8" fill="#67E8F9"/>
    <circle cx="284" cy="300" r="8" fill="#2563EB"/>
  </g>
  <text x="398" y="183" fill="#E0F2FE" font-family="Inter, Segoe UI, Arial, sans-serif" font-size="76" font-weight="800" letter-spacing="0">Nexa</text>
  <text x="402" y="235" fill="#93C5FD" font-family="Inter, Segoe UI, Arial, sans-serif" font-size="30" font-weight="600" letter-spacing="0">Cold-chain operations platform</text>
  <text x="402" y="287" fill="#BAE6FD" font-family="Inter, Segoe UI, Arial, sans-serif" font-size="24" font-weight="400" letter-spacing="0">Sales, logistics, warehouse, invoicing, and catalog coordination for B2B refrigerated commerce.</text>
  <g transform="translate(405 338)">
    <rect width="142" height="44" rx="10" fill="#0B2948" stroke="#38BDF8" stroke-opacity="0.55"/>
    <text x="22" y="29" fill="#E0F2FE" font-family="Inter, Segoe UI, Arial, sans-serif" font-size="17" font-weight="700">Vue 3</text>
    <rect x="160" width="142" height="44" rx="10" fill="#0B2948" stroke="#38BDF8" stroke-opacity="0.55"/>
    <text x="192" y="29" fill="#E0F2FE" font-family="Inter, Segoe UI, Arial, sans-serif" font-size="17" font-weight="700">Vite</text>
    <rect x="320" width="176" height="44" rx="10" fill="#0B2948" stroke="#38BDF8" stroke-opacity="0.55"/>
    <text x="346" y="29" fill="#E0F2FE" font-family="Inter, Segoe UI, Arial, sans-serif" font-size="17" font-weight="700">PrimeVue</text>
    <rect x="514" width="214" height="44" rx="10" fill="#0B2948" stroke="#38BDF8" stroke-opacity="0.55"/>
    <text x="542" y="29" fill="#E0F2FE" font-family="Inter, Segoe UI, Arial, sans-serif" font-size="17" font-weight="700">ASP.NET Core</text>
  </g>
  <g stroke="url(#blueLine)" stroke-width="5" stroke-linecap="round" stroke-linejoin="round" opacity="0.95">
    <path d="M888 312H1034L1086 256H1218"/>
    <path d="M1034 312L1091 372H1328"/>
  </g>
  <g fill="#E0F2FE" stroke="#38BDF8" stroke-width="2">
    <rect x="1160" y="174" width="156" height="78" rx="18" fill="#0B2948"/>
    <path d="M1194 223h88M1194 203h54" stroke="#67E8F9" stroke-width="6" stroke-linecap="round"/>
    <rect x="1004" y="278" width="156" height="78" rx="18" fill="#0B2948"/>
    <path d="M1037 320h92M1037 300h50" stroke="#67E8F9" stroke-width="6" stroke-linecap="round"/>
    <rect x="1272" y="340" width="156" height="78" rx="18" fill="#0B2948"/>
    <path d="M1305 382h92M1305 362h50" stroke="#67E8F9" stroke-width="6" stroke-linecap="round"/>
  </g>
  <g opacity="0.95">
    <circle cx="888" cy="312" r="12" fill="#67E8F9"/>
    <circle cx="1086" cy="256" r="12" fill="#38BDF8"/>
    <circle cx="1091" cy="372" r="12" fill="#0EA5E9"/>
    <circle cx="1328" cy="372" r="12" fill="#2563EB"/>
  </g>
</svg>
